<?xml version="1.0" standalone="no"?>
<!DOCTYPE svg PUBLIC "-//W3C//DTD SVG 20010904//EN"
 "http://www.w3.org/TR/2001/REC-SVG-20010904/DTD/svg10.dtd">
<svg version="1.0" xmlns="http://www.w3.org/2000/svg"
 width="463.000000pt" height="217.000000pt" viewBox="0 0 463.000000 217.000000"
 preserveAspectRatio="xMidYMid meet">

<g transform="translate(0.000000,217.000000) scale(0.100000,-0.100000)"
fill="#234567" stroke="none">
<path d="M646 1964 c-208 -46 -387 -187 -480 -377 -78 -160 -101 -302 -72
-448 71 -349 355 -590 696 -590 146 1 303 49 407 127 17 13 35 24 40 24 4 0
29 -29 55 -63 26 -35 124 -140 218 -235 167 -169 170 -172 212 -172 60 0 104
29 119 79 6 21 9 50 6 63 -6 23 -312 330 -419 420 l-56 48 49 97 c58 115 79
202 79 328 0 109 -19 192 -65 292 -90 195 -223 317 -421 385 -108 37 -260 46
-368 22z m344 -127 c254 -90 413 -334 397 -613 -15 -265 -201 -490 -454 -550
-99 -23 -256 -15 -345 19 -183 70 -324 226 -373 413 -19 73 -19 241 -1 311 57
215 228 383 445 438 88 23 239 14 331 -18z"/>
<path d="M767 1754 c-4 -4 -7 -29 -7 -54 0 -47 0 -48 -37 -54 -21 -3 -65 -19
-99 -35 -106 -50 -180 -142 -211 -262 l-17 -69 -42 0 c-43 0 -59 -15 -48 -45
4 -10 20 -15 49 -15 l42 0 18 -65 c20 -75 75 -167 126 -209 40 -34 145 -86
174 -86 33 0 43 -13 47 -60 3 -43 5 -45 33 -45 28 0 30 2 33 45 4 47 14 60 48
60 41 0 162 70 205 118 45 50 93 145 104 204 7 35 9 37 49 40 36 3 41 6 44 31
3 26 1 27 -41 27 l-45 0 -7 47 c-23 152 -164 297 -312 319 l-42 6 -3 52 c-3
46 -5 51 -28 54 -14 2 -29 0 -33 -4z m-7 -279 c0 -63 4 -105 10 -105 6 0 10
-25 10 -55 l0 -55 -60 0 c-33 0 -60 4 -60 10 0 6 -38 10 -95 10 -110 0 -109
-1 -72 91 40 96 107 164 194 195 74 26 73 27 73 -91z m156 88 c69 -23 154
-110 182 -186 37 -97 37 -97 -73 -97 -57 0 -95 -4 -95 -10 0 -6 -27 -10 -60
-10 l-60 0 0 55 c0 30 5 55 10 55 6 0 10 42 10 105 0 120 -2 118 86 88z m-136
-377 c0 -30 -4 -58 -10 -61 -6 -3 -10 -49 -10 -102 l0 -96 -34 6 c-111 18
-225 134 -251 255 l-7 32 96 0 c57 0 96 4 96 10 0 6 27 10 60 10 l60 0 0 -54z
m150 44 c0 -6 38 -10 95 -10 52 0 95 -1 95 -3 0 -20 -37 -118 -55 -146 -45
-70 -125 -126 -199 -138 l-36 -6 0 96 c0 53 -4 99 -10 102 -5 3 -10 31 -10 61
l0 54 60 0 c33 0 60 -4 60 -10z"/>
<path d="M1847 1496 c-20 -8 -43 -19 -51 -25 -41 -34 -59 -136 -35 -198 17
-45 49 -72 131 -114 84 -42 111 -72 106 -116 -7 -64 -93 -68 -133 -6 -18 29
-25 32 -72 33 -51 0 -53 -1 -53 -27 0 -41 40 -104 80 -127 51 -30 186 -30 226
0 69 51 91 128 60 209 -21 53 -53 82 -147 131 -75 40 -92 60 -87 102 7 57 94
63 120 7 10 -22 17 -25 66 -25 54 0 54 0 47 28 -28 117 -137 171 -258 128z"/>
<path d="M2330 1499 c-75 -30 -109 -103 -117 -250 -10 -187 24 -294 107 -337
38 -20 56 -23 117 -19 59 3 78 9 108 31 45 35 64 73 68 133 l2 48 -57 3 -58 3
0 -30 c0 -43 -39 -84 -78 -83 -42 1 -51 8 -68 48 -17 41 -19 256 -3 303 12 35
35 51 72 51 26 0 67 -38 67 -62 0 -41 11 -48 72 -48 l61 0 -7 43 c-18 117 -86
178 -200 176 -34 0 -72 -5 -86 -10z"/>
<path d="M2833 1491 c-84 -39 -121 -149 -110 -330 8 -121 20 -163 62 -210 71
-79 216 -83 292 -9 48 46 66 117 67 253 1 140 -15 205 -63 255 -58 60 -165 78
-248 41z m130 -92 c44 -20 52 -46 53 -174 1 -66 0 -134 -3 -150 -7 -43 -33
-74 -70 -81 -27 -5 -37 -1 -63 24 l-30 30 0 144 c0 154 7 184 50 205 31 16 33
16 63 2z"/>
<path d="M3260 1201 l0 -301 60 0 60 0 0 105 0 105 58 0 c118 0 178 41 202
138 14 61 0 147 -31 187 -39 48 -74 59 -216 63 l-133 4 0 -301z m209 188 c39
-14 51 -35 51 -92 0 -56 -23 -78 -90 -85 l-50 -5 0 97 0 96 29 0 c15 0 42 -5
60 -11z"/>
<path d="M3740 1200 l0 -300 165 0 165 0 0 50 0 49 -102 3 -103 3 -3 68 -3 67
86 0 85 0 0 55 0 55 -85 0 -85 0 0 70 0 69 103 3 102 3 3 53 3 52 -165 0 -166
0 0 -300z"/>
<path d="M4162 1448 l3 -53 108 -3 c59 -1 107 -5 107 -9 0 -3 -47 -90 -105
-193 -95 -170 -105 -193 -105 -239 l0 -51 180 0 180 0 0 50 0 50 -115 0 c-63
0 -115 3 -115 8 0 4 47 90 105 192 100 175 105 187 105 242 l0 58 -176 0 -175
0 3 -52z"/>
</g>
</svg>
